<svg xmlns="http://www.w3.org/2000/svg" width="32" height="32" id="email">
  <path d="M15.957 6.498V6.5a.5.5 0 0 0-.271.1L13.18 8.48H8.504v3.504l-1.707 1.28a.5.5 0 0 0-.281.627.5.5 0 0 0-.012.117V25a.5.5 0 0 0 0 .002.5.5 0 0 0 .002.047.5.5 0 0 0 0 .002.5.5 0 0 0 .008.047.5.5 0 0 0 0 .002.5.5 0 0 0 .011.046.5.5 0 0 0 0 .002.5.5 0 0 0 .018.045.5.5 0 0 0 0 .002.5.5 0 0 0 .021.043.5.5 0 0 0 0 .002.5.5 0 0 0 .028.041.5.5 0 0 0 0 .002.5.5 0 0 0 .03.037.5.5 0 0 0 0 .002.5.5 0 0 0 .034.035.5.5 0 0 0 .348.143.5.5 0 0 0 .016 0h17.878a.5.5 0 0 0 .606-.564V14.008a.5.5 0 0 0-.037-.195.5.5 0 0 0 0-.002.5.5 0 0 0-.248-.528L23.504 12V8.48h-.465a.5.5 0 0 0-.035-.001h-4.205l-2.514-1.881a.5.5 0 0 0-.328-.1zm.031 1.127 1.143.855h-2.283l1.14-.855zM9.504 9.48h13v5.194l-.037.023-.03.018-6.45 4.03-6.483-4.042v-2.455a.5.5 0 0 0 0-.014V9.48zm8.514 1.79a.5.5 0 0 0-.05.001.5.5 0 0 0-.34.16l-2.907 3.071-1.364-1.373a.5.5 0 0 0-.359-.152.5.5 0 0 0-.35.857l1.663 1.672a.5.5 0 0 0 .564.195.5.5 0 0 0 .03-.01.5.5 0 0 0 .017-.007.5.5 0 0 0 .027-.012.5.5 0 0 0 .018-.01.5.5 0 0 0 .16-.135l3.228-3.408a.5.5 0 0 0-.337-.85zm-9.514 1.966v.844l-.615-.383.615-.46zm15 .014.582.436-.086.052-.496.31v-.798zm1 1.352v9.472l-5.217-3.486a.5.5 0 0 0-.283-.09v.002a.5.5 0 0 0-.274.92l4.614 3.08H8.654l4.62-3.08a.5.5 0 0 0-.288-.92.5.5 0 0 0-.267.088l-5.215 3.478v-9.431l1 .623.236.146 6.895 4.3.084.052.037.023a.5.5 0 0 0 .002 0 .5.5 0 0 0 .055.022.5.5 0 0 0 .095.025.5.5 0 0 0 .092.006.5.5 0 0 0 .008 0 .5.5 0 0 0 .017-.002.5.5 0 0 0 .024-.002.5.5 0 0 0 .01-.002.5.5 0 0 0 .048-.01.5.5 0 0 0 .047-.013.5.5 0 0 0 .04-.016.5.5 0 0 0 .007-.004.5.5 0 0 0 .008-.004h.01l7.285-4.55v-.002l1-.625z" style="color:#000;font-style:normal;font-variant:normal;font-weight:400;font-stretch:normal;font-size:medium;line-height:normal;font-family:sans-serif;text-indent:0;text-align:start;text-decoration:none;text-decoration-line:none;text-decoration-style:solid;text-decoration-color:#000;letter-spacing:normal;word-spacing:normal;text-transform:none;direction:ltr;block-progression:tb;writing-mode:lr-tb;baseline-shift:baseline;text-anchor:start;white-space:normal;clip-rule:nonzero;display:inline;overflow:visible;visibility:visible;opacity:1;isolation:auto;mix-blend-mode:normal;color-interpolation:sRGB;color-interpolation-filters:linearRGB;solid-color:#000;solid-opacity:1;fill:#000;fill-opacity:1;fill-rule:nonzero;stroke:none;stroke-width:.99999994;stroke-linecap:round;stroke-linejoin:round;stroke-miterlimit:4;stroke-dasharray:none;stroke-dashoffset:1.29999995;stroke-opacity:1;color-rendering:auto;image-rendering:auto;shape-rendering:auto;text-rendering:auto;enable-background:accumulate"></path>
</svg>
